P3
# CREATOR: GIMP PNM Filter Version 1.1
3 4
255
255
131
81
255
131
183
255
131
255
255
183
81
255
153
153
255
153
255
255
203
51
255
204
153
255
205
255
255
255
51
255
255
153
255
255
255
