P3
# CREATOR: GIMP PNM Filter Version 1.1
5 5
255
78
209
79
63
118
247
92
175
95
210
109
104
252
101
119
224
191
182
108
89
82
80
196
230
112
156
180
142
151
142
117
189
149
171
231
153
149
164
168
120
105
138
163
174
196
163
222
132
187
117
183
158
143
79
220
75
222
189
73
214
211
120
173
188
214
244
163
166
246
79
125
246
211
201
98
